<?xml version="1.0" encoding="UTF-8" standalone="no"?>
<!-- Created with Inkscape (http://www.inkscape.org/) -->

<svg
   width="163.97357mm"
   height="242.27832mm"
   viewBox="0 0 163.97357 242.27832"
   version="1.1"
   id="svg1"
   xmlns="http://www.w3.org/2000/svg"
   xmlns:svg="http://www.w3.org/2000/svg">
  <defs
     id="defs1" />
  <g
     id="layer1"
     transform="translate(-13.657032,-14.513283)">
    <path
       style="fill:#f2fe00;fill-opacity:1;stroke:#000000;stroke-width:1.05833;stroke-linecap:round;stroke-linejoin:round;stroke-dasharray:1.05833, 1.05833;stroke-dashoffset:0;stroke-opacity:1"
       id="path1"
       d="M 91.394629,54.840176 A 31.340981,30.881227 0 0 1 60.828113,74.952263 31.340981,30.881227 0 0 1 31.890926,52.622381 31.340981,30.881227 0 0 1 44.381666,18.561807 31.340981,30.881227 0 0 1 81.121264,19.615561 L 62.012783,44.093105 Z"
       transform="rotate(14.781605)" />
    <path
       style="fill:#020200;fill-opacity:1;stroke:#000000;stroke-width:1.05833;stroke-linecap:round;stroke-linejoin:round;stroke-dasharray:none;stroke-dashoffset:0;stroke-opacity:1"
       id="path2"
       d="m 51.818646,41.036093 a 5.9857597,6.2539482 0 0 1 -3.819426,7.868931 5.9857597,6.2539482 0 0 1 -7.549911,-3.952367 5.9857597,6.2539482 0 0 1 3.74624,-7.907244 5.9857597,6.2539482 0 0 1 7.586226,3.875717 l -5.656882,2.044458 z" />
    <path
       style="fill:#ff1dff;fill-opacity:1;stroke:#000000;stroke-width:1.05833;stroke-linecap:round;stroke-linejoin:round;stroke-dasharray:1.05833, 1.05833;stroke-dashoffset:0;stroke-opacity:1"
       id="path3"
       d="m 157.52533,34.949387 a 30,30 0 0 1 12.63931,33.699308 30,30 0 0 1 -28.80478,21.57962 30,30 0 0 1 -28.78934,-21.600225 30,30 0 0 1 12.66342,-33.690256 l 16.13665,25.290483 z" />
    <path
       style="fill:#ff1dff;fill-opacity:1;stroke:#000000;stroke-width:1.05833;stroke-linecap:round;stroke-linejoin:round;stroke-dasharray:1.05833, 1.05833;stroke-dashoffset:0;stroke-opacity:1"
       id="path4"
       d="m 125.35247,19.751963 a 30,30 0 0 1 32.29139,0.01155 l -16.15474,25.27893 z" />
    <path
       style="fill:#c6c6c6;fill-opacity:1;stroke:#000000;stroke-width:1.05833;stroke-linecap:round;stroke-linejoin:round;stroke-dasharray:1.05833, 1.05833;stroke-dashoffset:0;stroke-opacity:1"
       id="path5"
       d="m 62.260379,157.2331 a 31.11759,28.889763 0 0 1 -40.38842,-5.20876 31.11759,28.889763 0 0 1 -0.158365,-37.85663 31.11759,28.889763 0 0 1 40.343623,-5.49986 z" />
    <path
       style="fill:#c6c6c6;fill-opacity:0;stroke:#000000;stroke-width:1.05833;stroke-linecap:round;stroke-linejoin:round;stroke-dasharray:none;stroke-dashoffset:0;stroke-opacity:1"
       id="path6"
       d="m 115.40886,149.08226 a 30,30 0 0 1 30,-30 30,30 0 0 1 30,30" />
    <circle
       style="fill:#e9ba74;fill-opacity:1;stroke:#000000;stroke-width:1.05833;stroke-linecap:round;stroke-linejoin:round;stroke-dasharray:none;stroke-dashoffset:0;stroke-opacity:1"
       id="path7"
       cx="51.55999"
       cy="223.46867"
       r="30" />
    <rect
       style="fill:#000000;fill-opacity:1;stroke:#000000;stroke-width:1.05833;stroke-linecap:round;stroke-linejoin:round;stroke-dasharray:none;stroke-dashoffset:0;stroke-opacity:1"
       id="rect7"
       width="9.2186155"
       height="17.749792"
       x="38.779308"
       y="205.99022"
       ry="4.6093078" />
    <rect
       style="fill:#000000;fill-opacity:1;stroke:#000000;stroke-width:1.05833;stroke-linecap:round;stroke-linejoin:round;stroke-dasharray:none;stroke-dashoffset:0;stroke-opacity:1"
       id="rect7-9"
       width="9.2186155"
       height="17.749792"
       x="54.580887"
       y="205.77104"
       ry="4.6093078" />
    <path
       style="fill:#c6c6c6;fill-opacity:0;stroke:#000000;stroke-width:1.05834;stroke-linecap:round;stroke-linejoin:round;stroke-dasharray:none;stroke-dashoffset:0;stroke-opacity:1"
       id="path6-4"
       d="m -68.983747,-230.62163 a 14.810056,12.726331 0 0 1 14.810056,-12.72633 14.810056,12.726331 0 0 1 14.810056,12.72633"
       transform="matrix(-0.99997154,-0.00754513,0.01021843,-0.99994779,0,0)" />
    <circle
       style="fill:#e9ba74;fill-opacity:1;stroke:#000000;stroke-width:1.05833;stroke-linecap:round;stroke-linejoin:round;stroke-dasharray:none;stroke-dashoffset:0;stroke-opacity:1"
       id="path7-6"
       cx="147.10144"
       cy="226.26244"
       r="30" />
    <rect
       style="fill:#000000;fill-opacity:1;stroke:#000000;stroke-width:1.05833;stroke-linecap:round;stroke-linejoin:round;stroke-dasharray:none;stroke-dashoffset:0;stroke-opacity:1"
       id="rect7-1"
       width="9.2186155"
       height="17.749792"
       x="134.32076"
       y="208.78398"
       ry="4.6093078" />
    <rect
       style="fill:#000000;fill-opacity:1;stroke:#000000;stroke-width:1.05833;stroke-linecap:round;stroke-linejoin:round;stroke-dasharray:none;stroke-dashoffset:0;stroke-opacity:1"
       id="rect7-9-0"
       width="9.2186155"
       height="17.749792"
       x="150.12233"
       y="208.5648"
       ry="4.6093078" />
    <path
       style="fill:#c6c6c6;fill-opacity:0;stroke:#000000;stroke-width:1.05834;stroke-linecap:round;stroke-linejoin:round;stroke-dasharray:none;stroke-dashoffset:0;stroke-opacity:1"
       id="path6-4-6"
       d="m 128.49016,249.29021 a 14.810056,12.726331 0 0 1 14.81006,-12.72633 14.810056,12.726331 0 0 1 14.81005,12.72633"
       transform="matrix(0.99980502,-0.01974654,0.01707358,0.99985424,0,0)" />
  </g>
</svg>
