<?xml version="1.0" encoding="UTF-8" standalone="no"?>
<!-- Created with Inkscape (http://www.inkscape.org/) -->

<svg
   width="263.95081mm"
   height="27.431046mm"
   viewBox="0 0 263.9508 27.431046"
   version="1.1"
   id="svg1"
   xmlns="http://www.w3.org/2000/svg"
   xmlns:svg="http://www.w3.org/2000/svg">
  <defs
     id="defs1" />
  <g
     id="layer1"
     transform="translate(-12.635599,-16.242196)">
    <path
       id="path4"
       style="fill:#270eff;fill-opacity:1;stroke:#000000;stroke-width:0.529167;stroke-linecap:round;stroke-linejoin:round;stroke-dasharray:none"
       d="m 12.900182,16.506779 v 12.7 12.7 h 12.697416 0.0026 12.642122 0.05529 12.644706 v -12.7 H 38.297598 38.242304 25.600182 v -12.7 z" />
    <path
       id="path6"
       style="fill:#07faff;fill-opacity:1;stroke:#000000;stroke-width:0.529167;stroke-linecap:round;stroke-linejoin:round;stroke-dasharray:none"
       d="m 225.52181,30.217295 v 12.7 h 12.7 12.7 12.7 12.7 v -12.7 h -12.7 -12.7 -12.7 z" />
    <path
       id="path10"
       style="fill:#ffa20d;fill-opacity:1;stroke:#000000;stroke-width:0.529167;stroke-linecap:round;stroke-linejoin:round;stroke-dasharray:none"
       d="m 72.043064,17.188807 v 12.018388 5.16e-4 H 59.350815 v 12.7 h 12.7 v -5.16e-4 H 84.743064 V 29.888807 h 12.660211 v -12.7 h -12.660211 -0.03979 z" />
    <path
       id="path13"
       style="fill:#fbff14;fill-opacity:1;stroke:#000000;stroke-width:0.529167;stroke-linecap:round;stroke-linejoin:round;stroke-dasharray:none"
       d="m 115.39795,17.70232 v 12.7 h -12.7 v 12.7 h 12.7 12.7 12.7 v -12.7 h -12.7 v -12.7 z" />
    <path
       id="path16"
       style="fill:#ff1d1d;fill-opacity:1;stroke:#000000;stroke-width:0.529167;stroke-linecap:round;stroke-linejoin:round;stroke-dasharray:none"
       d="m 193.21813,18.008657 v 12.7 12.7 h 12.7 12.7 v -12.7 -12.7 h -12.7 z" />
    <path
       id="path19"
       style="fill:#018e07;fill-opacity:1;stroke:#000000;stroke-width:0.529167;stroke-linecap:round;stroke-linejoin:round;stroke-dasharray:none"
       d="m 173.4884,17.9731 v 12.7 h -12.7 -12.7 v 12.7 h 12.7 12.7 12.7 v -12.7 -12.7 z" />
  </g>
</svg>
