<?xml version="1.0" encoding="UTF-8" standalone="no"?>
<!-- Created with Inkscape (http://www.inkscape.org/) -->

<svg
   width="210mm"
   height="297mm"
   viewBox="0 0 210 297"
   version="1.1"
   id="svg1"
   inkscape:version="1.3.2 (091e20ef0f, 2023-11-25)"
   sodipodi:docname="8.svg"
   xmlns:inkscape="http://www.inkscape.org/namespaces/inkscape"
   xmlns:sodipodi="http://sodipodi.sourceforge.net/DTD/sodipodi-0.dtd"
   xmlns="http://www.w3.org/2000/svg"
   xmlns:svg="http://www.w3.org/2000/svg">
  <sodipodi:namedview
     id="namedview1"
     pagecolor="#ffffff"
     bordercolor="#eeeeee"
     borderopacity="1"
     inkscape:showpageshadow="0"
     inkscape:pageopacity="0"
     inkscape:pagecheckerboard="0"
     inkscape:deskcolor="#505050"
     inkscape:document-units="mm"
     inkscape:zoom="0.86323653"
     inkscape:cx="517.81868"
     inkscape:cy="436.14929"
     inkscape:window-width="2048"
     inkscape:window-height="1211"
     inkscape:window-x="0"
     inkscape:window-y="0"
     inkscape:window-maximized="1"
     inkscape:current-layer="layer1" />
  <defs
     id="defs1" />
  <g
     inkscape:label="Layer 1"
     inkscape:groupmode="layer"
     id="layer1">
    <path
       id="path7"
       style="fill:#ffff00;fill-opacity:1;stroke:#000000;stroke-width:0.529167;stroke-linecap:round;stroke-opacity:1"
       inkscape:transform-center-x="11.433629"
       inkscape:transform-center-y="-23.108073"
       d="M 70.55435 20.791496 A 7.028583 8.4551325 65.874036 0 0 66.922013 21.655526 A 7.028583 8.4551325 65.874036 0 0 62.077865 31.526241 A 7.028583 8.4551325 65.874036 0 0 68.281104 35.336344 L 87.341439 77.893437 L 95.328031 74.316911 L 76.258911 31.739148 A 7.028583 8.4551325 65.874036 0 0 77.511031 24.614518 A 7.028583 8.4551325 65.874036 0 0 70.55435 20.791496 z M 137.24744 20.791496 A 8.4551325 7.028583 24.125964 0 0 130.29076 24.614518 A 8.4551325 7.028583 24.125964 0 0 131.54288 31.739148 L 112.47375 74.316911 L 120.46035 77.893437 L 139.52068 35.336344 A 8.4551325 7.028583 24.125964 0 0 145.72392 31.526241 A 8.4551325 7.028583 24.125964 0 0 140.87977 21.655526 A 8.4551325 7.028583 24.125964 0 0 137.24744 20.791496 z " />
    <path
       id="rect7"
       style="fill:#ffff00;fill-opacity:1;stroke:#000000;stroke-width:0.529167;stroke-linecap:round;stroke-opacity:1"
       d="m 66.921959,21.655742 a 7.028583,8.4551325 65.874036 0 0 -4.843857,9.870618 7.028583,8.4551325 65.874036 0 0 6.203237,3.809807 L 87.34138,77.893672 95.327869,74.316798 76.258745,31.739014 A 7.028583,8.4551325 65.874036 0 0 77.51107,24.614465 7.028583,8.4551325 65.874036 0 0 66.921959,21.655742 Z"
       inkscape:transform-center-x="11.433629"
       inkscape:transform-center-y="-23.108073" />
    <path
       id="rect1"
       style="fill:#69acad;fill-opacity:1;stroke:#000000;stroke-width:1.024;stroke-linecap:round;stroke-dasharray:none"
       d="m 67.038102,68.467325 v 9.941759 H 47.988411 v 23.823306 h 19.049691 v 45.33826 h 36.772168 0.18124 36.77217 v -45.33826 h 19.04969 V 78.409084 h -19.04969 v -9.941759 h -36.77217 -0.18124 z" />
    <g
       id="g3">
      <ellipse
         style="fill:#fefefe;fill-opacity:1;stroke:#000000;stroke-width:0.529167;stroke-linecap:round"
         id="path2"
         cx="86.641167"
         cy="97.536331"
         rx="10.183393"
         ry="10.612018" />
      <ellipse
         style="fill:#000000;fill-opacity:1;stroke:#000000;stroke-width:0.529167;stroke-linecap:round"
         id="path3"
         cx="83.680908"
         cy="100.77316"
         rx="6.3706827"
         ry="5.9636102" />
    </g>
    <rect
       style="fill:#debcbc;fill-opacity:1;stroke:#000000;stroke-width:0.529167;stroke-linecap:round"
       id="rect3"
       width="5.8714204"
       height="13.361552"
       x="82.016701"
       y="125.47766" />
    <rect
       style="fill:#debcbc;fill-opacity:1;stroke:#000000;stroke-width:0.529167;stroke-linecap:round"
       id="rect4"
       width="5.8714204"
       height="13.361552"
       x="87.83754"
       y="125.47766" />
    <rect
       style="fill:#debcbc;fill-opacity:1;stroke:#000000;stroke-width:0.529167;stroke-linecap:round"
       id="rect5"
       width="5.8714204"
       height="13.361552"
       x="93.658379"
       y="125.47766" />
    <rect
       style="fill:#debcbc;fill-opacity:1;stroke:#000000;stroke-width:0.529167;stroke-linecap:round"
       id="rect6"
       width="5.8714204"
       height="13.361552"
       x="97.891716"
       y="125.47766" />
    <g
       id="g9">
      <ellipse
         style="fill:#fefefe;fill-opacity:1;stroke:#000000;stroke-width:0.529167;stroke-linecap:round"
         id="ellipse8"
         cx="86.641167"
         cy="97.536331"
         rx="10.183393"
         ry="10.612018" />
      <ellipse
         style="fill:#000000;fill-opacity:1;stroke:#000000;stroke-width:0.529167;stroke-linecap:round"
         id="ellipse9"
         cx="83.680908"
         cy="100.77316"
         rx="6.3706827"
         ry="5.9636102" />
    </g>
    <rect
       style="fill:#debcbc;fill-opacity:1;stroke:#000000;stroke-width:0.529167;stroke-linecap:round"
       id="rect9"
       width="5.8714204"
       height="13.361552"
       x="82.016701"
       y="125.47766" />
    <rect
       style="fill:#debcbc;fill-opacity:1;stroke:#000000;stroke-width:0.529167;stroke-linecap:round"
       id="rect10"
       width="5.8714204"
       height="13.361552"
       x="87.83754"
       y="125.47766" />
    <rect
       style="fill:#debcbc;fill-opacity:1;stroke:#000000;stroke-width:0.529167;stroke-linecap:round"
       id="rect11"
       width="5.8714204"
       height="13.361552"
       x="93.658379"
       y="125.47766" />
    <rect
       style="fill:#debcbc;fill-opacity:1;stroke:#000000;stroke-width:0.529167;stroke-linecap:round"
       id="rect12"
       width="5.8714204"
       height="13.361552"
       x="97.891716"
       y="125.47766" />
    <g
       id="g14"
       transform="matrix(-1,0,0,1,207.80183,0)">
      <ellipse
         style="fill:#fefefe;fill-opacity:1;stroke:#000000;stroke-width:0.529167;stroke-linecap:round"
         id="ellipse13"
         cx="86.641167"
         cy="97.536331"
         rx="10.183393"
         ry="10.612018" />
      <ellipse
         style="fill:#000000;fill-opacity:1;stroke:#000000;stroke-width:0.529167;stroke-linecap:round"
         id="ellipse14"
         cx="83.680908"
         cy="100.77316"
         rx="6.3706827"
         ry="5.9636102" />
    </g>
    <rect
       style="fill:#debcbc;fill-opacity:1;stroke:#000000;stroke-width:0.529167;stroke-linecap:round"
       id="rect14"
       width="5.8714204"
       height="13.361552"
       x="-125.78494"
       y="125.47766"
       transform="scale(-1,1)" />
    <rect
       style="fill:#debcbc;fill-opacity:1;stroke:#000000;stroke-width:0.529167;stroke-linecap:round"
       id="rect15"
       width="5.8714204"
       height="13.361552"
       x="-119.96413"
       y="125.47766"
       transform="scale(-1,1)" />
    <rect
       style="fill:#debcbc;fill-opacity:1;stroke:#000000;stroke-width:0.529167;stroke-linecap:round"
       id="rect16"
       width="5.8714204"
       height="13.361552"
       x="-114.1433"
       y="125.47766"
       transform="scale(-1,1)" />
    <rect
       style="fill:#debcbc;fill-opacity:1;stroke:#000000;stroke-width:0.529167;stroke-linecap:round"
       id="rect17"
       width="5.8714204"
       height="13.361552"
       x="-109.90997"
       y="125.47766"
       transform="scale(-1,1)" />
    <g
       id="g19"
       transform="translate(34.519507)">
      <ellipse
         style="fill:#fefefe;fill-opacity:1;stroke:#000000;stroke-width:0.529167;stroke-linecap:round"
         id="ellipse18"
         cx="86.641167"
         cy="97.536331"
         rx="10.183393"
         ry="10.612018" />
      <ellipse
         style="fill:#000000;fill-opacity:1;stroke:#000000;stroke-width:0.529167;stroke-linecap:round"
         id="ellipse19"
         cx="83.680908"
         cy="100.77316"
         rx="6.3706827"
         ry="5.9636102" />
    </g>
    <rect
       style="fill:#debcbc;fill-opacity:1;stroke:#000000;stroke-width:0.529167;stroke-linecap:round"
       id="rect19"
       width="5.8714204"
       height="13.361552"
       x="-125.78494"
       y="125.47766"
       transform="scale(-1,1)" />
    <rect
       style="fill:#debcbc;fill-opacity:1;stroke:#000000;stroke-width:0.529167;stroke-linecap:round"
       id="rect20"
       width="5.8714204"
       height="13.361552"
       x="-119.96413"
       y="125.47766"
       transform="scale(-1,1)" />
    <rect
       style="fill:#debcbc;fill-opacity:1;stroke:#000000;stroke-width:0.529167;stroke-linecap:round"
       id="rect21"
       width="5.8714204"
       height="13.361552"
       x="-114.1433"
       y="125.47766"
       transform="scale(-1,1)" />
    <rect
       style="fill:#debcbc;fill-opacity:1;stroke:#000000;stroke-width:0.529167;stroke-linecap:round"
       id="rect22"
       width="5.8714204"
       height="13.361552"
       x="-109.90997"
       y="125.47766"
       transform="scale(-1,1)" />
  </g>
</svg>
