<?xml version="1.0" encoding="UTF-8" standalone="no"?>
<!-- Created with Inkscape (http://www.inkscape.org/) -->

<svg
   width="297mm"
   height="210mm"
   viewBox="0 0 297 210"
   version="1.1"
   id="svg1"
   xmlns="http://www.w3.org/2000/svg"
   xmlns:svg="http://www.w3.org/2000/svg">
  <defs
     id="defs1" />
  <g
     id="layer1">
    <path
       id="path1"
       style="fill:#00fff2;fill-opacity:0.98620433;stroke:#000000;stroke-width:0.324;stroke-linecap:round;stroke-dasharray:none"
       d="M 60.512069,50.512162 A 20,20 0 0 0 40.512256,70.511975 20,20 0 0 0 60.512069,90.511788 H 159.99489 A 20,20 0 0 0 179.9947,70.511975 20,20 0 0 0 159.99489,50.512162 Z m 0,13.105144 a 6.8946614,6.8946614 0 0 1 6.894669,6.894669 6.8946614,6.8946614 0 0 1 -6.894669,6.89467 6.8946614,6.8946614 0 0 1 -6.89467,-6.89467 6.8946614,6.8946614 0 0 1 6.89467,-6.894669 z m 99.515371,0 a 6.8946614,6.8946614 0 0 1 6.89415,6.894669 6.8946614,6.8946614 0 0 1 -6.89415,6.89467 6.8946614,6.8946614 0 0 1 -6.89467,-6.89467 6.8946614,6.8946614 0 0 1 6.89467,-6.894669 z" />
  </g>
</svg>
